<svg xmlns="http://www.w3.org/2000/svg" xmlns:xlink="http://www.w3.org/1999/xlink" width="2000" height="2500" viewBox="0 0 2000 2500"><defs><linearGradient id="Áåçûìÿííûé_ãðàäèåíò_114" x1="639.61" y1="1463.01" x2="639.61" y2="813.35" gradientTransform="matrix(-1, 0, 0, 1, 1157.21, 0)" gradientUnits="userSpaceOnUse"><stop offset="0" stop-color="#fc9090"/><stop offset="1" stop-color="#ff386b"/></linearGradient><linearGradient id="Áåçûìÿííûé_ãðàäèåíò_123" x1="301.73" y1="1441.74" x2="301.73" y2="813.35" gradientTransform="translate(152.57)" gradientUnits="userSpaceOnUse"><stop offset="0" stop-color="#ffeadb"/><stop offset="0.99" stop-color="#d177f4"/></linearGradient><linearGradient id="Áåçûìÿííûé_ãðàäèåíò_123-2" x1="363.18" y1="1442" x2="363.18" y2="813.35" xlink:href="#Áåçûìÿííûé_ãðàäèåíò_123"/><linearGradient id="Áåçûìÿííûé_ãðàäèåíò_123-3" x1="434.17" y1="1318.33" x2="434.17" y2="858.97" xlink:href="#Áåçûìÿííûé_ãðàäèåíò_123"/><linearGradient id="Áåçûìÿííûé_ãðàäèåíò_114-2" x1="341.61" y1="1461.01" x2="341.61" y2="811.35" gradientTransform="translate(468)" xlink:href="#Áåçûìÿííûé_ãðàäèåíò_114"/><linearGradient id="Áåçûìÿííûé_ãðàäèåíò_123-4" x1="599.73" y1="1439.74" x2="599.73" y2="811.35" gradientTransform="matrix(-1, 0, 0, 1, 1472.64, 0)" xlink:href="#Áåçûìÿííûé_ãðàäèåíò_123"/><linearGradient id="Áåçûìÿííûé_ãðàäèåíò_123-5" x1="661.18" y1="1440" x2="661.18" y2="811.35" gradientTransform="matrix(-1, 0, 0, 1, 1472.64, 0)" xlink:href="#Áåçûìÿííûé_ãðàäèåíò_123"/><linearGradient id="Áåçûìÿííûé_ãðàäèåíò_123-6" x1="732.17" y1="1316.33" x2="732.17" y2="856.97" gradientTransform="matrix(-1, 0, 0, 1, 1472.64, 0)" xlink:href="#Áåçûìÿííûé_ãðàäèåíò_123"/><linearGradient id="Áåçûìÿííûé_ãðàäèåíò_114-3" x1="660.65" y1="1396" x2="660.65" y2="408.04" gradientTransform="matrix(-1, 0, 0, 1, 1004.64, 0)" xlink:href="#Áåçûìÿííûé_ãðàäèåíò_114"/><linearGradient id="Áåçûìÿííûé_ãðàäèåíò_123-7" x1="668.27" y1="1388.19" x2="668.27" y2="522.44" gradientTransform="matrix(-0.82, 0.18, 0.21, 0.98, 716.8, -105.64)" xlink:href="#Áåçûìÿííûé_ãðàäèåíò_123"/><linearGradient id="Áåçûìÿííûé_ãðàäèåíò_123-8" x1="680.64" y1="983" x2="680.64" y2="441.64" gradientTransform="matrix(-1, 0, 0, 1, 1004.64, 0)" xlink:href="#Áåçûìÿííûé_ãðàäèåíò_123"/><linearGradient id="Áåçûìÿííûé_ãðàäèåíò_114-4" x1="215.5" y1="1397" x2="215.5" y2="322.35" gradientTransform="matrix(-1, 0, 0, 1, 1004.64, 0)" xlink:href="#Áåçûìÿííûé_ãðàäèåíò_114"/><linearGradient id="Áåçûìÿííûé_ãðàäèåíò_123-9" x1="209.45" y1="1375.99" x2="209.45" y2="338.76" gradientTransform="matrix(-1, 0, 0, 1, 1004.64, 0)" xlink:href="#Áåçûìÿííûé_ãðàäèåíò_123"/><linearGradient id="Áåçûìÿííûé_ãðàäèåíò_123-10" x1="478.33" y1="440.94" x2="478.33" y2="329.03" gradientTransform="matrix(-1, 0, 0, 1, 1004.64, 0)" xlink:href="#Áåçûìÿííûé_ãðàäèåíò_123"/><linearGradient id="Áåçûìÿííûé_ãðàäèåíò_123-11" x1="106.17" y1="1252.32" x2="106.17" y2="792.96" gradientTransform="matrix(-1, 0, 0, 1, 1004.64, 0)" xlink:href="#Áåçûìÿííûé_ãðàäèåíò_123"/><linearGradient id="Áåçûìÿííûé_ãðàäèåíò_123-12" x1="362.14" y1="584" x2="362.14" y2="371.22" gradientTransform="matrix(-1, 0, 0, 1, 1004.64, 0)" xlink:href="#Áåçûìÿííûé_ãðàäèåíò_123"/></defs><title>PERSONAJE TRAJE ROSA CLARO</title><g style="isolation:isolate"><g id="MECHONES"><path d="M655.54,813.36A103,103,0,0,0,662.21,826q-.5,23-1,46a866.52,866.52,0,0,0-16,95c-6.73,60-2.82,72.59-11,116-13.42,71.21-30.86,69.45-28,104,4.57,55.11,59.46,67.43,67.1,128.32,6.51,51.87-33.81,98.16-37.1,101.68a130,130,0,0,1-27,22l-20,24-9-25c12.61-34.13,13.7-57,12-72-.55-4.84-4-32.14-4-32-22.34,22.22-28.15,40.72-29,54-.71,11.18,5.72,23.78-1,37a37,37,0,0,1-13,14,73.22,73.22,0,0,0-3-29c-2.44-7.56-8-20-8-20-7.56,18.87-17.45,29.66-25,36-15.09,14.15-36,22-36,22a155.92,155.92,0,0,0-6-36,159.13,159.13,0,0,0-33-60c-61.33-56.21-73.58-101.72-73-133.36,1.25-68.08,53.89-89.24,53.89-159,0-66.23-48.74-83.94-36-178.83,2.46-18,8.26-41.24,17.22-67.52" fill="url(#Áåçûìÿííûé_ãðàäèåíò_114)"/><path d="M454.19,813.35A110.55,110.55,0,0,0,446,834c-20.44,77.18,12.05,148,2.58,197s-38.86,52.22-68.79,152.08,161.94,164,161.94,164c-.13.51-.13,1-.27,1.53a68.62,68.62,0,0,1-3,11.21c-9.34,27-34.25,53.87-50.23,69.16-2.44,2.55-4.74,4.58-6.77,6.37a21.94,21.94,0,0,0-1.9,1.78c-1.76,1.53-3.25,2.8-4.19,3.57l-.82.76a.69.69,0,0,1-.4.25c0-.12.13-.25.4-.38,4.06-4.2,26.14-28.53,16-49.93-11.1-23.56-98.3-64.06-120.64-148.38s84.76-149.66,43.6-249.13c-24.79-60.19-17.25-112.24,28.24-180.57" fill="url(#Áåçûìÿííûé_ãðàäèåíò_123)" style="mix-blend-mode:multiply"/><path d="M621.6,814.59q-1.11,8.55-2.39,17.42c-1.62,11.23-4.83,32-18,54-10.24,17.13-19.11,22.66-33,39-22.36,26.29-19.83,36-38,63-34.63,51.49-64.51,47-86.75,92.92-6.5,13.41-11.61,31.07-13.67,51.44-11.11,109.41,161.66,127.11,184.82,185.83,22.2,56.29,1.89,118.45.13,123.42a1,1,0,0,0-.13.38H589.83a5.84,5.84,0,0,0,.54-1c6-9,47.26-75.66,12-113.61-37.64-40.63-143.79-19.23-176.83-75S398.37,1132,476.9,1025.25c66.1-89.73,80.88-138.31,102.23-211.9" fill="url(#Áåçûìÿííûé_ãðàäèåíò_123-2)" style="mix-blend-mode:multiply"/><path d="M669.31,1318.33c-2.17-36.81-32.09-61.14-115.9-107.89-29.47-16.47-44.07-30.46-47.8-46.28-8.81-37.4,24.43-67.24,65.4-133.43,58.58-94.65,72.64-173.84,79.2-171.72,4.31,1.39-6.87,33.92-17.32,105.61-11.45,78.48-6.18,95.22-20.68,151.39-11.55,44.77-18.1,46.53-19,68C590.85,1240.27,633.3,1287.41,669.31,1318.33Z" fill="url(#Áåçûìÿííûé_ãðàäèåíò_123-3)" style="mix-blend-mode:multiply"/><path d="M671.67,811.36A103,103,0,0,1,665,824q.5,23,1,46a866.52,866.52,0,0,1,16,95c6.73,60,2.82,72.59,11,116,13.42,71.21,30.86,69.45,28,104-4.57,55.11-59.46,67.43-67.1,128.32-6.51,51.87,33.81,98.16,37.1,101.68a130,130,0,0,0,27,22l20,24,9-25c-12.61-34.13-13.7-57-12-72,.55-4.84,4-32.14,4-32,22.35,22.22,28.15,40.72,29,54,.71,11.18-5.71,23.78,1,37a37,37,0,0,0,13,14,73.22,73.22,0,0,1,3-29c2.44-7.56,8-20,8-20,7.57,18.87,17.45,29.66,25,36,15.09,14.15,36,22,36,22a155.92,155.92,0,0,1,6-36,159.13,159.13,0,0,1,33-60c61.33-56.21,73.58-101.72,73-133.36-1.25-68.08-53.89-89.24-53.89-159,0-66.23,48.74-83.94,36-178.83-2.46-18-8.26-41.24-17.21-67.52" fill="url(#Áåçûìÿííûé_ãðàäèåíò_114-2)"/><path d="M873,811.35a110.55,110.55,0,0,1,8.16,20.6c20.44,77.18-12,148-2.58,197s38.86,52.22,68.79,152.08-161.94,164-161.94,164c.13.51.13,1,.27,1.53a68.62,68.62,0,0,0,3,11.21c9.34,27,34.26,53.87,50.23,69.16,2.44,2.55,4.74,4.58,6.77,6.37a21.94,21.94,0,0,1,1.9,1.78c1.76,1.53,3.25,2.8,4.2,3.57l.81.76a.69.69,0,0,0,.4.25c0-.12-.13-.25-.4-.38-4.06-4.2-26.13-28.53-16-49.93,11.1-23.56,98.3-64.06,120.64-148.38s-84.76-149.66-43.6-249.13c24.79-60.19,17.25-112.24-28.24-180.57" fill="url(#Áåçûìÿííûé_ãðàäèåíò_123-4)" style="mix-blend-mode:multiply"/><path d="M705.61,812.59q1.11,8.55,2.39,17.42c1.62,11.23,4.83,32,18,54,10.24,17.13,19.11,22.66,33,39,22.36,26.29,19.83,36,38,63,34.63,51.49,64.51,47,86.75,92.92,6.5,13.41,11.61,31.07,13.68,51.44,11.1,109.41-161.67,127.11-184.83,185.83-22.2,56.29-1.89,118.45-.13,123.42a1,1,0,0,1,.13.38h24.78a5.84,5.84,0,0,1-.54-1c-6-9-47.25-75.66-12.05-113.61,37.64-40.63,143.79-19.23,176.83-75s27.22-120.36-51.31-227.1c-66.1-89.73-80.88-138.31-102.23-211.9" fill="url(#Áåçûìÿííûé_ãðàäèåíò_123-5)" style="mix-blend-mode:multiply"/><path d="M657.9,1316.33c2.17-36.81,32.09-61.14,115.9-107.89,29.47-16.47,44.07-30.46,47.8-46.28,8.82-37.4-24.43-67.24-65.4-133.43C697.62,934.08,683.56,854.89,677,857c-4.31,1.39,6.87,33.92,17.32,105.61,11.45,78.48,6.18,95.22,20.68,151.39,11.55,44.77,18.1,46.53,19,68C736.36,1238.27,693.91,1285.41,657.9,1316.33Z" fill="url(#Áåçûìÿííûé_ãðàäèåíò_123-6)" style="mix-blend-mode:multiply"/></g><g id="CUELLO"><rect x="619.5" y="1073.5" width="114" height="97" fill="#f8c99f" stroke="#000" stroke-miterlimit="10" stroke-width="2"/></g><g id="PARTES_CARA" data-name="PARTES CARA"><g id="OREJA_I" data-name="OREJA I"><path d="M352.5,767.5a60.08,60.08,0,0,0-9-20,56.33,56.33,0,0,0-10-11c-3.3-2.73-8.31-6.87-16-9a38,38,0,0,0-23,1,36.88,36.88,0,0,0-18,15c-6.76,11-8.24,21.21-9,31-1.33,17,2.75,29.9,5,37a72.73,72.73,0,0,0,6,14,50.24,50.24,0,0,0,7,10,54.38,54.38,0,0,0,8,7,95.7,95.7,0,0,0,14,9,59,59,0,0,0,12,5,63.15,63.15,0,0,0,14,2,96.7,96.7,0,0,0,12,0" fill="#f8c99f" stroke="#000" stroke-miterlimit="10" stroke-width="3"/><path d="M349.5,789.5a42.55,42.55,0,0,0-10-13c-3.07-2.69-8.6-7.45-17-9-1.64-.3-17.7-3-23,6-1.6,2.73-1.37,5.64-1,11,.26,3.77,1.18,7.23,3,14,.79,2.93,1.5,5.35,2,7" fill="#f8c99f" stroke="#000" stroke-miterlimit="10" stroke-width="3"/><path d="M347.5,809.5a20.27,20.27,0,0,0-10-7c-2.46-.74-6.06-1.82-9,0-3.93,2.43-4,8.37-4,11a20.9,20.9,0,0,0,2,9" fill="#f8c99f" stroke="#000" stroke-miterlimit="10" stroke-width="3"/></g><g id="CABEZA"><path d="M947.5,865.5c-1,11.53-3.24,23.2-3.24,23.2-.93,5-2.15,10.66-3.76,16.8a265.59,265.59,0,0,1-10,30c-15.14,36.25-47.21,63.59-56,71-23.81,20.07-49.78,31.54-101,56a387.37,387.37,0,0,1-46,19,380.15,380.15,0,0,1-69,16,367.09,367.09,0,0,1-53,4h0a190.09,190.09,0,0,1-42-4c-5-1-21.11-4.63-44-15,0,0-8.45-3.83-20.55-10.62a382.15,382.15,0,0,1-42.45-28.38c-52.69-41.26-82.9-92.83-83-93h0c-10.24-17-23.59-44-28-79-2.58-20.47-1.13-36,4-80,4.83-41.49,6.16-64.86,12-98,5.06-28.73,8.48-48.11,16-72,13-41.42,32.33-77,44-93,62.06-84.86,212.62-64.84,235.5-62,14,1.74,124.94,16.79,184.5,87,25.71,30.3,43,68,43,68,4.38,9.54,6.83,16.24,21,60,15.61,48.21,23.5,72.64,28,89C933.5,770.5,950.5,832.36,947.5,865.5Z" fill="#f8c99f" stroke="#000" stroke-miterlimit="10" stroke-width="2"/></g><g id="NARIZ"><path d="M601.5,833.5a69.35,69.35,0,0,0-19-4c-7.36-.49-15.23-1-24,3a37.66,37.66,0,0,0-18,17c-5.54,10.93-3.73,21.24-3,25s2.85,13,11,20c6.57,5.64,13.52,6.71,22,8a75,75,0,0,0,74-34" fill="none" stroke="#000" stroke-miterlimit="10" stroke-width="2"/></g><g id="BOCA"><path d="M462.5,920.5a97.21,97.21,0,0,0,17,11c10,5.07,18.36,7.15,26,9a157,157,0,0,0,26,4c6.66.75,15.14,1.53,25,2,5.4.26,19,.79,37,0,15.34-.67,29.9-1.31,49-5,5-1,16-4,38-10,8.51-2.33,13.54-3.77,20-7a110.08,110.08,0,0,0,18-11,108.24,108.24,0,0,0,17-16" fill="none" stroke="#000" stroke-miterlimit="10" stroke-width="2"/><path d="M446.5,923.5a22.46,22.46,0,0,0,16-4,21.72,21.72,0,0,0,7-9" fill="none" stroke="#000" stroke-miterlimit="10" stroke-width="2"/><path d="M727.5,885.5a20.86,20.86,0,0,0,20,16" fill="none" stroke="#000" stroke-miterlimit="10" stroke-width="2"/><path d="M571.5,1019.5a51.06,51.06,0,0,0,13,7,55.55,55.55,0,0,0,15,3,57,57,0,0,0,15-1,44.36,44.36,0,0,0,14-5,41.33,41.33,0,0,0,8-6" fill="none" stroke="#000" stroke-miterlimit="10" stroke-width="2"/><path d="M496.5,938.5a386.25,386.25,0,0,0,58,8,370.39,370.39,0,0,0,60-1,317.66,317.66,0,0,0,60-12,286.42,286.42,0,0,0,36-14,156.3,156.3,0,0,1-13,24,160.38,160.38,0,0,1-41,42c-11.54,8.17-20.64,14.61-35,18a82,82,0,0,1-32,1c-27.06-4.13-45.54-18.86-57-28a194,194,0,0,1-23-22C504,948.33,499.64,942.77,496.5,938.5Z" fill="#6d0015" stroke="#000" stroke-miterlimit="10" stroke-width="2"/><path d="M701.5,936.5a155.6,155.6,0,0,1-15,7q-3.87,1.56-7.55,2.82s-8,2.83-16.45,5.18c-55.25,15.32-105,10-105,10a233.59,233.59,0,0,1-28.3-4.83l-.7-.17c-9.57-2.3-16-3.41-20-4l-10-13c27,5.36,46.53,6.68,58,7,10.85.31,25.36,0,27,0,13.47-.26,22.62-.84,25-1,7.8-.51,13.87-.91,22-2,2-.28,10.45-1.48,22-4s28-6.19,47-15c4.29-2,7.74-3.78,10-5Z" fill="#fff" stroke="#000" stroke-miterlimit="10" stroke-width="2"/><path d="M550.5,989.5a98.47,98.47,0,0,0,26,12c7.55,2.22,21.92,6.26,40,3a87.17,87.17,0,0,0,30-12,89.14,89.14,0,0,0,13-10,134.77,134.77,0,0,0-53-9,112.67,112.67,0,0,0-32,5A107.07,107.07,0,0,0,550.5,989.5Z" fill="#ea899a" stroke="#000" stroke-miterlimit="10" stroke-width="2"/></g><g id="PARPADOS"><path d="M413.5,677.5c1-1.11,11.79-12.28,27-10a30.05,30.05,0,0,1,17,9" fill="none" stroke="#000" stroke-miterlimit="10" stroke-width="2"/><path d="M713.5,660.5a69.84,69.84,0,0,1,19-7c4.94-1,11.57-2.36,20-1,3.78.61,8.75,1.47,14,5a30,30,0,0,1,8,8" fill="none" stroke="#000" stroke-miterlimit="10" stroke-width="2"/></g><g id="OJOS"><path d="M815.5,765.5c.17,10.53.2,16.61-3,24-3.33,7.69-8.28,12.43-12,16a68.63,68.63,0,0,1-22,14c-7.14,2.84-15.38,4.23-32,5-9.35.43-19.55.82-31-3a109.9,109.9,0,0,1-12-3.85,33.82,33.82,0,0,1-10-6.15c-11-9.91-13.2-30-14-40-.94-11.64.28-20.18,1.94-31.62,0,1,0,1.82.06,2.62l131.65-2A124.69,124.69,0,0,1,815.5,765.5Z" fill="#fff"/><path d="M813.5,740.5h-.35a101.92,101.92,0,0,0-2.65-10c-2.42-7.56-5.7-17.52-14-28-3.88-4.89-10-12.52-21-18a59.1,59.1,0,0,0-24-6,66.65,66.65,0,0,0-27,4,55.48,55.48,0,0,0-19,11c-5.21,4.71-8.1,9.38-13,17a76.22,76.22,0,0,0-7,13,67.12,67.12,0,0,0-4,16l-.06.38a75.36,75.36,0,0,1,9.06-36.38c3.34-6.12,12-22,31-30a60.71,60.71,0,0,1,31-4,64.8,64.8,0,0,1,28,10c11.55,7.6,17.34,17,21,23A86.2,86.2,0,0,1,813.5,740.5Z"/><path d="M813.15,740.51l-131.65,2c0-.8,0-1.67-.06-2.62l.06-.38a67.12,67.12,0,0,1,4-16,76.22,76.22,0,0,1,7-13c4.9-7.62,7.79-12.29,13-17a55.48,55.48,0,0,1,19-11,66.65,66.65,0,0,1,27-4,59.1,59.1,0,0,1,24,6c11,5.48,17.12,13.11,21,18,8.3,10.48,11.58,20.44,14,28A101.92,101.92,0,0,1,813.15,740.51Z" fill="#fff"/><path d="M490.5,768.5c0,8,0,14.57-2,23-1.29,5.37-2.17,9-5,13-4.56,6.42-10.91,9.24-15,11-8.44,3.63-15.59,3.82-24,4a85.29,85.29,0,0,1-22-2c-9.21-2.11-15.73-3.6-22-9-7.67-6.61-10.34-15.11-12-21-2.35-8.3-1.88-14.65-1-27,.27-3.75.53-7.42,1-11.25v.25l100-5c-.25-2.14-.56-4.2-.91-6.19.31,1.64.6,3.35.91,5.19A156.39,156.39,0,0,1,490.5,768.5Z" fill="#fff"/><path d="M488.5,744.5l-100,5v-.25a95.85,95.85,0,0,1,3-14.75c2.77-9.67,5.58-19.49,14-29,3.3-3.73,11.39-12.64,25-16a38.89,38.89,0,0,1,21,0c9.22,2.74,14.67,8.46,19,13a61.91,61.91,0,0,1,13,21,76.18,76.18,0,0,1,4.06,14.61l0,.2C487.94,740.3,488.25,742.36,488.5,744.5Z" fill="#fff"/><path d="M487.56,738.11a76.18,76.18,0,0,0-4.06-14.61,61.91,61.91,0,0,0-13-21c-4.33-4.54-9.78-10.26-19-13a38.89,38.89,0,0,0-21,0c-13.61,3.36-21.7,12.27-25,16-8.42,9.51-11.23,19.33-14,29a95.85,95.85,0,0,0-3,14.75c.12-8.84,1.69-33.9,20-52.75,5.26-5.41,14.63-15,29-16a38.07,38.07,0,0,1,21,5c9.15,5.21,13.43,12.73,18,21A102,102,0,0,1,487.56,738.11Z"/><path d="M388.5,749.25c.12-8.84,1.69-33.9,20-52.75,5.26-5.41,14.63-15,29-16a38.07,38.07,0,0,1,21,5c9.15,5.21,13.43,12.73,18,21a102,102,0,0,1,11.06,31.61" fill="none" stroke="#000" stroke-miterlimit="10" stroke-width="2"/><path d="M487.59,738.31c.31,1.64.6,3.35.91,5.19a156.39,156.39,0,0,1,2,25c0,8,0,14.57-2,23-1.29,5.37-2.17,9-5,13-4.56,6.42-10.91,9.24-15,11-8.44,3.63-15.59,3.82-24,4a85.29,85.29,0,0,1-22-2c-9.21-2.11-15.73-3.6-22-9-7.67-6.61-10.34-15.11-12-21-2.35-8.3-1.88-14.65-1-27,.27-3.75.53-7.42,1-11.25a95.85,95.85,0,0,1,3-14.75c2.77-9.67,5.58-19.49,14-29,3.3-3.73,11.39-12.64,25-16a38.89,38.89,0,0,1,21,0c9.22,2.74,14.67,8.46,19,13a61.91,61.91,0,0,1,13,21,76.18,76.18,0,0,1,4.06,14.61Z" fill="none" stroke="#000" stroke-miterlimit="10" stroke-width="2"/><path d="M681.44,739.88a75.36,75.36,0,0,1,9.06-36.38c3.34-6.12,12-22,31-30a60.71,60.71,0,0,1,31-4,64.8,64.8,0,0,1,28,10c11.55,7.6,17.34,17,21,23a86.2,86.2,0,0,1,12,38" fill="none" stroke="#000" stroke-miterlimit="10" stroke-width="2"/><path d="M813.15,740.51a124.69,124.69,0,0,1,2.35,25c.17,10.53.2,16.61-3,24-3.33,7.69-8.28,12.43-12,16a68.63,68.63,0,0,1-22,14c-7.14,2.84-15.38,4.23-32,5-9.35.43-19.55.82-31-3a109.9,109.9,0,0,1-12-3.85,33.82,33.82,0,0,1-10-6.15c-11-9.91-13.2-30-14-40-.94-11.64.28-20.18,1.94-31.62l.06-.38a67.12,67.12,0,0,1,4-16,76.22,76.22,0,0,1,7-13c4.9-7.62,7.79-12.29,13-17a55.48,55.48,0,0,1,19-11,66.65,66.65,0,0,1,27-4,59.1,59.1,0,0,1,24,6c11,5.48,17.12,13.11,21,18,8.3,10.48,11.58,20.44,14,28A101.92,101.92,0,0,1,813.15,740.51Z" fill="none" stroke="#000" stroke-miterlimit="10" stroke-width="2"/></g><g id="PUPILAS"><ellipse cx="750.5" cy="755.5" rx="36" ry="47" fill="#eb4e74" stroke="#000" stroke-miterlimit="10" stroke-width="2"/><ellipse cx="445" cy="760.5" rx="31.5" ry="41" fill="#eb4e74" stroke="#000" stroke-miterlimit="10" stroke-width="2"/></g><g id="IRIS"><ellipse cx="754" cy="759.5" rx="20.5" ry="29" stroke="#000" stroke-miterlimit="10"/><ellipse cx="447.5" cy="763" rx="18" ry="25.5" stroke="#000" stroke-miterlimit="10"/></g><g id="cejas"><path d="M697.5,622.5c4.23-.42,10-.87,17-1a200.77,200.77,0,0,1,25,1c32.25,3.85,59.28,22.39,65,28,1.61,1.58,4.08,3.39,9,7,3,2.18,5.15,3.65,6,3,.67-.51.25-2.14,0-3a95.45,95.45,0,0,0-17-32,118.5,118.5,0,0,0-50-36c-6.4-2.53-12.44-4.87-21-6-9.4-1.24-18.54-2.52-26,3-5.69,4.21-7.79,10.42-9,14-1,3-3.1,9.45-1,17A24.84,24.84,0,0,0,697.5,622.5Z" fill="#eb4e74" stroke="#000" stroke-miterlimit="10" stroke-width="2"/><path d="M496.5,629.5a109,109,0,0,0-49,2,113.68,113.68,0,0,0-21,8,68.64,68.64,0,0,0-20,11c-8,6.39-12.4,13-14,12-1.93-1.14,2.48-11.75,3-13a79.46,79.46,0,0,1,16-24,100.53,100.53,0,0,1,20-16,96,96,0,0,1,17-9c4.92-2,10.4-4.18,18-5,4.76-.52,10.86-1.28,18,1,3.28,1,6.43,2.06,9,5,3.11,3.57,3.51,7.73,4,13A48.46,48.46,0,0,1,496.5,629.5Z" fill="#eb4e74" stroke="#000" stroke-miterlimit="10" stroke-width="2"/></g><g id="OREJA_D" data-name="OREJA D"><path d="M931.5,776.5a152.53,152.53,0,0,1,9-19c7.07-12.61,12.72-22.69,24-31a67.35,67.35,0,0,1,30-12,69.27,69.27,0,0,1,39,6,40.76,40.76,0,0,1,11,7,46.54,46.54,0,0,1,11,16c5.83,14.28,2.24,28.24,0,37-4.46,17.48-13.23,29-20,38a112.47,112.47,0,0,1-21,22,107.61,107.61,0,0,1-31,17,109.93,109.93,0,0,1-15,4,118.94,118.94,0,0,1-44,0" fill="#fff" stroke="#000" stroke-miterlimit="10" stroke-width="3"/><path d="M940.5,805.5a154.13,154.13,0,0,1,11-27c6.68-12.76,12.4-23.36,24-30,0,0,8.28-4.84,17-5a23,23,0,0,1,11,2c1.23.58,7.32,3.49,10,10,1.44,3.51.92,7.69,0,16-.33,3-.72,5.38-1,7" fill="#fff" stroke="#000" stroke-miterlimit="10" stroke-width="3"/></g></g><g id="PELO_TRASERO" data-name="PELO TRASERO"><path d="M455.47,408c.37,16.73,1.95,29.94,1.95,29.94a206.06,206.06,0,0,0-51.18,5.23c-5.3,1.22-6.85,1.39-7.72,1.65-23.3,6.92-35.27,30.65-40.52,40.14-27.51,49.67-54,39.25-86,97-11.08,20-10.54,26-25,49-16.63,26.48-31.67,41.37-39,50-17.59,20.72-35.17,57.71-32,129q10,29,20,58a232.76,232.76,0,0,1-14,61c-9.06,23.78-16.41,30.66-16,48,.45,19.1,9.59,20.5,12,45,2.18,22.21-4.84,26,0,42s12.38,14.16,21,33c7.88,17.22,3.52,21.92,11,46,3.71,12,4.85,9.81,15,33,13.75,31.42,11.42,34.77,21,53,13.44,25.58,18.61,20.06,27,40,10.58,25.14,2.31,33.77,15,56,6.5,11.4,8.92,11.93,19,28a226.12,226.12,0,0,1,21,43,84.12,84.12,0,0,1,25-7c17.33-2,25.71,2.69,39,2,9.56-.5,23.42-3.88,40-18a108.89,108.89,0,0,1-18-96c2.74,10.42,13,44.07,46,67a114.39,114.39,0,0,0,48,19l14-12c-4.56-10.12-10.16-21.6-17-34-13.32-24.16-20.05-31.38-22-46-1.23-9.25.83-11.15,5-34,6.32-34.59,9.48-51.89,6-69-4.47-22-13.36-21.58-17-46-2.85-19.11.09-28.07-1-39-1.7-16.94-13.56-28.66-24-40-1-1.07-8.65-8.38-24-23-7.93-7.55-10.75-10.2-15-15-6.3-7.11-11.29-13.93-15-19-4.79-6.54-5.15-7.48-10-14-6.43-8.64-7.66-9.43-11-14-4.27-5.85-8.34-13.81-14-27-3.64-8.48-7-16.5-10-24-.8-2.91-1.88-7-3-12a245.82,245.82,0,0,1-6-46c-.11-4.15-.5-20.4,1.79-35.26.2-1.3.74-4.86,1.48-10,1.9-13.29,2.52-23.13,2.73-25.76,1.64-21,11-79.71,13-92,3-18.32,3.68-22.46,5-29,1.41-7,4.57-22,10-40,2.45-8.13,4.18-13,5.94-17.42,2.14-5.38,3.92-9.14,8.06-17.58,7.88-16.07,11.82-24.11,15-30,6.78-12.56,10.18-18.84,14-24,0,0,12.49-16.85,26-25l5-3c13.07-7.84,14-8.4,15-9,7-4.09,13.06-6.21,21-9h0s6-1.16,18-3.5" fill="url(#Áåçûìÿííûé_ãðàäèåíò_114-3)"/><path d="M320.3,1361.64A29,29,0,0,0,324,1374c1.8,3.13,5.55,9.65,12,10,5.09.28,10.19-3.38,13-9a55.53,55.53,0,0,1-9-18c-3.28-11.56-3.62-19.92-4-27-.86-16.08-4.49-16.07-13-49-7.49-29-4.34-27.71-10-45-7.93-24.24-12.71-22.45-20-44-9.18-27.13-2.6-32.87-12-62-5.81-18-7.93-14.59-18-40-7.07-17.83-15.22-38.39-18-65-1.91-18.32-.57-17.1-1-45-.37-24.36-4.45-25.53-4-43,.51-19.91,6.21-34.54,12-49,15.75-39.35,40.38-70,58-89a81.52,81.52,0,0,1,0,21c-3.14,23.85-15.13,30.24-28,57-7.23,15-9.67,31.61-14,65-4.48,34.54-6.72,51.81,0,64,8,14.54,20.24,18.66,24,37,1.67,8.16-.13,10.33,0,23,.18,17.4,3.77,30.06,8,45,6.61,23.34,15.12,40.13,19,56a44.81,44.81,0,0,0,2,6.86c2.22,5.65,5.22,9.3,9,17.14,12.47,26.09,11.38,52.84,11,59-.81,13.32-3.45,15.59-2,26,2.13,15.25,9.89,25.43,13,30,8.48,12.45,16.85,33.87,15,73a27,27,0,0,0,13,6c10.69,1.64,23.33-3.64,25-11,1.08-4.77-2.7-9.33-4-11-8.5-10.91-10.26-25.84-19-134-.41-5.13-1-11.88-2-21-2.1-18.4-4.13-28.09-6-41-2.57-17.71-.4-15.28-1.84-22-4.93-22.91-18.11-24.28-28.16-48-8.47-20-1.82-23.16-11-44-8-18.22-15-16.36-18-30-3.44-15.64,1.87-22.59,4-43,3.73-35.77-10.57-62.19-8-63,1.47-.46,6.67,11,17,34,6.33,14.07,9.52,21.2,11,26,7.23,23.42-.34,25.23,6,43,6.15,17.24,19.08,31.79,23,43a113.34,113.34,0,0,0,4.34,10.71c.83,1.77,1.79,3.71,2.92,5.77,5.45,10,10.11,13.89,18.74,34.52,8.26,19.74,15.21,36.36,17,59,2.18,27.53-5.44,36.67,1,65,1.76,7.75,4,17.12,10,28,8.11,14.61,14.28,16,26,33,10.3,14.94,6.7,15.57,17,30,2.72,3.82,19.85,27.36,35,27,1.5,0,5.72-.14,8-3s1.36-7.42,1-9c-2.87-12.48-24.46-34.84-31-44-18.34-25.68,10.71-46.85,3-104-3.65-27.08-10.24-22.78-21-72-7.39-33.81-5.07-39.4-13-55-8.28-16.28-11.91-12.85-45-52-31-36.66-32.57-45.42-33-50-.66-7.06.06-18.76-7.24-27.66-1.59-2-5-5.72-9.27-11.93A75.52,75.52,0,0,1,347,918c-11.44-22.77-10.14-50.52-11-106-.86-55.26,6.43-47.71,12-138,3.37-54.56,3.05-95.21,26-130a137.34,137.34,0,0,1,22-26c32.42-29.75,73.17-37.83,75-34,1.22,2.56-15.08,10.22-53,42,0,0-4,3.26-9.19,7.82C372.56,565.47,280.64,683.19,273,693c-37.06,116.25-63.86,201.49-69,219-.35,1.2-1.41,6.38-4,18-12.06,54.2-12.49,55.39-13,60-.76,6.85-4.11,37.19,11,66,7.92,15.09,30.9,48.85,31.58,60.31A68.88,68.88,0,0,0,231,1127a71.94,71.94,0,0,0,2.26,8.24c4.71,14.14.56,26.89,7.74,42.76,3.26,7.2,5.83,8.37,13,23,1.79,3.65,3.11,6.61,4,8.52,17.1,38.88,19.2,66,39,97.48C297,1307,318.85,1342,320.3,1361.64Z" fill="url(#Áåçûìÿííûé_ãðàäèåíò_123-7)" style="mix-blend-mode:multiply"/><path d="M475,472a380.05,380.05,0,0,0-114,63c-5.27,4.25-34.15,38.87-92,108-21.94,26.21-33,39.69-36,58-3.63,21.91-.53,22.87-9,61-5.43,24.43-9.94,33.18-9,52,.39,7.9,1.56,14.19,1,26a148.91,148.91,0,0,1-5,31c-7.83,31.3-16,57.51-19,67-2.78,8.89-7.69,24.62-14,45l-6-2c5.27-20.15,10.29-36,14-47,8.77-26,8.41-27.4,10-34,10.45-43.24,5.33-60.7,2-69-2-5-2.29-4-5-10-18.62-40.91-4.36-83.87-1-94,4.79-14.44,10.73-24.92,17-36a273.34,273.34,0,0,1,26-38c68.67-85.14,86.86-87.14,105-125a192,192,0,0,1,39.25-54.62A82.79,82.79,0,0,1,391,464c27-18.21,68.45-30.45,81-16,3.05,3.51,3.91,8,4,12Q475.51,466,475,472Z" fill="url(#Áåçûìÿííûé_ãðàäèåíò_123-8)" style="mix-blend-mode:multiply"/><path d="M355,573.65s-12.85,7.83-12.59,74.21c0,0-33.61-22.52-49.58-18.67,0,0,3.31-45.61,24.9-68.35,0,0-3.42,9.52-1.49,13.45S355,573.65,355,573.65Z" fill="#ffd9ff" style="mix-blend-mode:soft-light"/><path d="M327.55,578s-9.32,12.37-17.36,44H275.52S296.7,594.38,327.55,578Z" fill="#ffd9ff" style="mix-blend-mode:soft-light"/><path d="M301.08,810.65s-8,81.27,5.73,110.85C306.81,921.5,251.82,904.55,301.08,810.65Z" fill="#ffd9ff" style="mix-blend-mode:soft-light"/><path d="M310.05,831.13S285.18,856,282.22,900.69c0,0-28.18-6.68-56.19-12.67,0,0-10.58-17.11,7.37-36.16s44-50.6,44-50.6S280.87,830.65,310.05,831.13Z" fill="#ffd9ff" style="mix-blend-mode:soft-light"/></g><g id="CAPA_TRASERA" data-name="CAPA TRASERA"><path d="M569.12,1137.73q2.1-1.29,4.08-2.38" fill="#5433d4" stroke="#000" stroke-miterlimit="10" stroke-width="2"/><path d="M798.5,1116.5c13.61-1.64,24.54.77,35,3,9.8,2.09,24,5,44,9,0,0,18.51,4.9,35,11,26,9.62,42.38,21.51,73.14,41.73,0,0,12.38,8.15,55.86,36.27,10.43,6.74,56.52,36.28,104,59,41.6,19.91,101,48.35,181,54,44.9,3.17,84.65-1.66,101-4,28-4,53-10.12,73-15,21.15-5.17,29.91-8,62-17,58.11-16.28,54.17-13.92,89-24,55.3-16,63.73-21.54,110-34,28.91-7.78,52.74-12.93,68-16a259.62,259.62,0,0,0-42,50c-23,35.76-32.17,69.74-40,110-19.66,101-3.75,101.89-22,188-14.41,68-29.11,90-41,136a105.52,105.52,0,0,1-12,29,100.89,100.89,0,0,1-20,24c-19.87,17.06-41.56,20.81-49,22-11.58,1.85-20.72.9-39-1-21-2.19-41.52-4.32-66-13-21.68-7.69-36.11-12.81-54-24-11.07-6.92-21.14-14.72-29-11-4.83,2.28-6.63,7.88-9,17-8.83,34-9,45-9,45-.57,35.93,3,68.78,4,92a425.91,425.91,0,0,1-8,102,434,434,0,0,1-23,79,100.36,100.36,0,0,1-22,27c-18.45,15.87-37.89,20.58-52,24-10.15,2.46-24.4,5.78-43,4-6-.57-18.23-2.23-37-10-31.25-12.94-33.32-23.3-65-40-24.93-13.14-42.37-22.34-60-16-17.24,6.2-27.41,24.66-32,33-4.43,8-2.53,7.67-15,37-2.26,5.31-4.84,11.21-10,23-4.83,11.05-10.26,23.35-11,25-9.22,20.38-47.62,54.39-106,73-21,6.71-43,9.14-87,14-49.06,5.42-79.19,4.62-93,4-15-.68-28-1.26-45-4-18.39-3-74.14-11.93-125-48-18.09-12.83-26.72-17.88-44-28-14.45-8.46-26-14.51-41-14a55.88,55.88,0,0,0-21,5c-2.69-11.31-6.61-28.27-11-49-3.6-17-11.21-54.08-18-102a365.39,365.39,0,0,1-4-61c.1-7.19.43-16,3-46,2.16-25.25,3.24-37.88,6-63,8.61-78.36-1.23-217.91-3-243-4.26-60.38-7.67-78.08-6-121,1.38-35.29,2.49-63.85,12-99,18.36-67.87,38.13-58.1,64-134,0,0,35.74-92.65,59-115a18.17,18.17,0,0,1,5.62-3.77c4.69-2,11.29-2.24,24.38,3.77,11.1,5.09,11.3,7.56,26,16,10,5.73,15.11,8.63,22,10,8.12,1.62,10-.6,21,1,9.93,1.44,11.07,3.47,18,4,5.38.41,10.26-.4,23-5,20-7.22,30-10.74,38-17,11.57-9.08,10.92-13.6,24-22a76.59,76.59,0,0,1,33-12Z" fill="#8c56eb" stroke="#000" stroke-miterlimit="10" stroke-width="2"/><path d="M1413.5,1731.5a94.65,94.65,0,0,1,11-19,58.65,58.65,0,0,1,10-11,56.77,56.77,0,0,1,13-8,50.36,50.36,0,0,1,20-5,49.84,49.84,0,0,1,18,3c7.51,2.71,12.44,6.58,18,11a337.13,337.13,0,0,1,26,23,184.77,184.77,0,0,0,60,45,105.29,105.29,0,0,0,28,6" fill="#8c56eb" stroke="#000" stroke-miterlimit="10" stroke-width="2"/><path d="M1074.5,1448.5c2,1.25,4.71,3,8,5,11.26,6.93,19.82,11.76,22,13,29.5,16.73,103.34,62.72,196,114,18.8,10.4,43.69,24,78,45,16.19,9.92,29.33,18.36,38,24l52,31,22,13" fill="#8c56eb" stroke="#000" stroke-miterlimit="10" stroke-width="2"/><path d="M880.5,1670.5c8.45,18,21.21,45.06,37,78,10.68,22.28,18.48,38.55,29,60,0,0,52.34,104.45,78,139,5.8,7.81,10.23,12.83,27,35,14.66,19.38,20.35,27.55,32,39,6.41,6.31,11.59,10.76,19,17,10.63,9,20,16,27,21" fill="#8c56eb" stroke="#000" stroke-miterlimit="10" stroke-width="2"/></g><g id="CUERPO"><g id="BRASO_DE" data-name="BRASO DE"><g id="BRASO_D" data-name="BRASO D"><path d="M242.5,1441.5a46.16,46.16,0,0,0,7,3,75.33,75.33,0,0,0,21,4c13.86.74,24.38-2.37,33-5s14.4-5.42,26-11c3.06-1.47,12-5.83,28-15,11.68-6.69,19.85-11.74,33-20,19.91-12.5,29.86-18.75,36-23,5.29-3.66,11.06-7.8,20-13,1.7-1,7.66-4.42,17-9,13.92-6.82,19.43-8.37,32-14,14.45-6.47,21.87-9.26,26-13,4.56-4.13,8.71-10.15,14-34a327.39,327.39,0,0,0,7-48c1.3-19,.44-27.2,1-57,.34-18.09.72-33,1-43-15.91,2.65-24.45,5.29-29,7l-3.1,1.18c-4.69,1.81-12.79,4.92-16.9,6.82-3.63,2.64-8.81,6.42-15,11-13.55,10-27.86,20.65-43,33-16.49,13.46-13.28,12.1-28,24-8.47,6.84-7.41,5.58-39,29-15.49,11.49-26.51,19.77-36,25-9,4.93-19,10-19,10-2.24,1.13-3.88,1.94-4,2" fill="#ffa4bd" stroke="#000" stroke-miterlimit="10" stroke-width="2"/></g><g id="ANTEBRASO_D" data-name="ANTEBRASO D"><path d="M242.5,1441.5a92.12,92.12,0,0,1-16-12c-5.16-4.84-12-12.38-20-27-6.19-11.33-10.51-22.22-16-40a557.16,557.16,0,0,1-16-65,536.62,536.62,0,0,1-7-55c-1.31-19-.87-36.64,0-72,0,0,.2-8.32,2-32,.58-7.72,2.56-32,10-42l6-8a54.36,54.36,0,0,0,8,6c10.57,6.5,21.28,8,28,9,4.16.6,8.18.89,16,2l7,1c.72,3.94,1.83,10.21,3,18,2.1,14,2,17.37,4,26a154.18,154.18,0,0,0,6,20c.64,1.68,3.42,7.78,9,20,1.21,2.64,3.66,8,7,15h0c10.72,22.47,12.65,24.27,18,37,2.93,7,2.46,6.69,9,23,4.26,10.62,6.39,15.94,7,17,3.25,5.68,4.41,7.39,4.41,8.9,0,.19-.05,1-.15,1s-.21-.87-.26-.87c-.22,0,.7,15.08,0,27a123.61,123.61,0,0,1-5,28" fill="#ffa4bd" stroke="#000" stroke-miterlimit="10" stroke-width="2"/></g><g id="MANO_D" data-name="MANO D"><path d="M352.5,1043.5c2.15,6.42,4.87,14.57,2,24a31.82,31.82,0,0,1-9,14,35.83,35.83,0,0,1-19,9c-4.07.72-11.94,2.12-19-2-1.55-.91-5.65-3.3-6-7-.12-1.28.25-2.31,2-6,2-4.15,3.09-6.18,4-8,2-4,4.66-9.32,5-16,.11-2.17,0-5,0-5s.07,3.39,0,6c-.13,4.56-2.14,8.15-5,15a58.55,58.55,0,0,1-13,20c-7.63,7.43-20.45,15-31,15a39.36,39.36,0,0,0-14,2c-2.83,1-2.94,1.43-5,2-5.3,1.47-9.2-.2-16-2-10.41-2.75-9.79-1.07-20-4-5.26-1.51-8.74-2.53-13-5-2-.66-7.53-2.75-10-8-.62-1.33-1.72-4.26,0-13a75.63,75.63,0,0,1,6-18c2.7-5.7,5.15-9.8,11-19,8-12.65,12.07-19,15-23,6.35-8.69,11.3-14.3,19-23a97.2,97.2,0,0,1,12-12c8-6.52,13.35-8.45,15-9a38.22,38.22,0,0,1,13-2c10,.35,16.95,5.35,26,12,10.39,7.64,16.89,15,23,22a196.59,196.59,0,0,1,16,21C347.31,1032.27,350.21,1036.66,352.5,1043.5Z" fill="#f8c99f" stroke="#000" stroke-miterlimit="10" stroke-width="2"/></g></g><g id="CUERPO_BORADO" data-name="CUERPO BORADO"><path d="M542.13,1143.94c12.74-2.26,23.73-3.61,32.37-4.44,20.3-2,36.79-2,45-2h0c6.65,10.25,9,13,9,13a46.25,46.25,0,0,0,14,11c8.32,4.24,15.73,4.65,22,5a68.68,68.68,0,0,0,21-2c8-2.12,13.44-5.22,20-9,5.45-3.14,10.94-6.3,17-12a173.3,173.3,0,0,0,12-13l16,1c5.88.39,12.25.94,30,3,24.17,2.81,36.26,4.21,46,6,11.62,2.14,21,4.42,27,6,17.89,119.31,17.11,166,10,181a116.16,116.16,0,0,0-6,15c-4.14,12.79-5.28,23.73-6,44-1,27.44-2.27,41.12-2,53,.34,14.94,1.38,26.29,2,33,1.62,17.45,3.9,32.36,6,44,3.93,21.79,2.82,21.15,5,36,2.08,14.15,4.91,32.42,5,33,0,0-91.32,49.65-195,71-106.58,22-222.79-7-223-7,0,0-3.27-12.09-4-15,0,0-4.15-16.41-7-31-7.82-40-4-106-4-106,1-32.46,4.81-70.66,15-111,5.45-21.57,13-50.55,31-85,3.42-6.53,7.29-13.11,7.36-13.23h0c3.1-5.56,8.12-13.56,15.48-24.54" fill="#ffa4bd" stroke="#000" stroke-miterlimit="10" stroke-width="2"/></g><g id="CALSONSILLO"><path d="M901.5,1712.5c-4.14,2.37-10.36,5.88-18,10-12.78,6.9-16.82,8.65-23,12-14.81,8-25,16.08-35,24a251,251,0,0,0-29,26,255.72,255.72,0,0,0-28,36c-5.14,8-9.13,15.38-10,17-4.57,8.47-6.85,12.71-8,16-2,5.79-2.08,8.56-5,11-2.22,1.85-5.18,2.26-11,3-10.43,1.33-15.64,2-16,2-8.9.25-16.36-2.17-33-9-13.82-5.67-20.74-8.51-30-13-14.33-7-19.28-10.23-46.17-24.79-15.47-8.37-14.93-7.82-22.83-12.21-28.91-16-50-30-68-42-12.2-8.12-27.91-18.86-46-32q-7.65-26.41-15-54-6.88-25.87-13-51l24,3c88.39,11,97.65,11.78,111,12a417.43,417.43,0,0,0,66-4c4.72-.68,19.72-2.94,48-10,40.73-10.17,76.68-19.14,119-40a429.88,429.88,0,0,0,50-29c1.73,8.41,4.09,19.69,7,33,1.82,8.31,5.26,23.9,10,44,4.4,18.67,6.65,28.16,9,36A343.4,343.4,0,0,0,901.5,1712.5Z" fill="#8c56eb" stroke="#000" stroke-miterlimit="10" stroke-width="2"/></g><g id="SINTO"><path d="M874.5,1619.5a469.07,469.07,0,0,1-42,23c-14.53,7-26.1,11.65-37,16-11.43,4.56-24.53,9.46-41,15-32.29,10.85-51.64,17.36-75,22-30.25,6-52.72,6-86,6-31.55,0-57.23-2.32-87-5-19.42-1.75-35.58-3.6-47-5q-3-11.37-6-23-4.75-18.74-9-37l24,3c88.39,11,97.65,11.78,111,12a417.43,417.43,0,0,0,66-4c4.72-.68,19.72-2.94,48-10,40.73-10.17,76.68-19.14,119-40a429.88,429.88,0,0,0,50-29Z" fill="#8c56eb" stroke="#000" stroke-miterlimit="10" stroke-width="2"/></g><g id="EVILLA"><path d="M708,1688c-3.94,1.42-9.4,3.24-16,5-3,.8-14.81,3.87-34,6-12.7,1.41-22,1.67-35,2s-24.55.24-34,0q-2-27-4-54c11.86,0,22-.45,30-1a289.34,289.34,0,0,0,35-4c4.25-.78,4.76-1,23-5,9.73-2.14,17.7-3.86,23-5Z" fill="#ffa4bd" stroke="#000" stroke-miterlimit="10" stroke-width="2"/></g><g id="BRASO_IZ" data-name="BRASO IZ"><g id="MANO_I" data-name="MANO I"><path d="M1068.5,1721.5c-6.23,11.08-5.41,12-10,20-2.22,3.87-1.33,1.87-9,14-4.64,7.35-5.54,9-8,12a77.8,77.8,0,0,1-10,10,87.76,87.76,0,0,1-15,11c-5.1,2.91-7.65,4.37-11,5-8.94,1.68-16.48-2.58-19-4-1.7-1-7.47-4.41-15-16s-10.6-17.72-12-26a53,53,0,0,1,1-22,25.28,25.28,0,0,1-6-4,26.5,26.5,0,0,1-8-14c-.65-3-2-8.81,1-15a20.1,20.1,0,0,1,7-8c2.43-1.58,4.3-2,8-3,1.08-.29,10.54-2.89,16-5s9-4.58,14-8c7.44-5.13,6.62-6,16-13,5.44-4,7.65-5,12-9,3.07-2.86,8-8,8-8a105.18,105.18,0,0,1,15-1c8.75.41,15.2,4.55,19,7,2.66,1.71,12.76,8.58,18,21a132.88,132.88,0,0,1,5,16c-1.71,6-3.48,11-5,15-1.22,3.2-3.06,8-6,14C1072.18,1715.22,1070.69,1717.6,1068.5,1721.5Z" fill="#f8c99f" stroke="#000" stroke-miterlimit="10" stroke-width="2"/><path d="M1001.5,1734.5c2-1.11,4.78-2.76,8-5,4.91-3.41,7.4-5.18,9-8a17.24,17.24,0,0,0,2-10,17.25,17.25,0,0,0-15-16c-1.86-.26-6.51-.63-17,5a85.93,85.93,0,0,0-17,12l-11,13" fill="#f8c99f" stroke="#000" stroke-miterlimit="10" stroke-width="2"/></g><g id="BRASO_I" data-name="BRASO I"><path d="M851.5,1145.5a79.7,79.7,0,0,1,20,9c6.19,3.9,9.8,7.39,18,15,17.39,16.14,13.8,12.18,23,21,15,14.38,25.69,26,33,34,13.58,14.84,23.41,26.65,27,31,6.46,7.83,12.73,16,25,32,29.06,37.9,36.62,48.89,42,59,1,1.78,9,17,9,17-5.52,3-14.32,7.81-25,14,0,0-19.08,11-69,43a80.81,80.81,0,0,1-10-9c-4.86-5.46-10.08-10.6-15-16-7.39-8.11-7.77-7.53-18-18s-17.5-18.82-22-24c-5.45-6.27-12.68-14.68-19-23a256.57,256.57,0,0,1-29-49" fill="#ffa4bd" stroke="#000" stroke-miterlimit="10" stroke-width="2"/></g><g id="ANTEBRASO_I" data-name="ANTEBRASO I"><path d="M960.5,1383.5a75,75,0,0,0-7,26,50.68,50.68,0,0,0-.24,5.34c.15,8,2.7,17.24,10.24,41.66,8.09,26.21,12.14,39.32,15,46,6.69,15.62,7.78,13.83,22,43,12.84,26.34,15,34.09,16,38,1.1,4.33,2.74,13.55,6,32,0,0,.43,2.43,4,23a50,50,0,0,1,21,0,47.41,47.41,0,0,1,15,6,46.52,46.52,0,0,1,14,14c6.65,10.32,9,23,9,23a45.47,45.47,0,0,0,6-9c4.39-8.71,4.71-16.5,5-23,1-23.08,2-34.66,2-38,.1-7.16.21-15.44,0-27-.17-9.3-.47-24.86-2-44a516.59,516.59,0,0,0-22-116c-6.49-21.08-11.38-32.33-13-36a270,270,0,0,0-15-29" fill="#ffa4bd" stroke="#000" stroke-miterlimit="10" stroke-width="2"/></g></g><g id="PIERNA_DE" data-name="PIERNA DE"><g id="bota_d" data-name="bota d"><path d="M708.5,2053.5a279,279,0,0,1-40,9,269.65,269.65,0,0,1-65,2,253.23,253.23,0,0,1-43-8,192.53,192.53,0,0,0,1,49c1.38,9.06,3.6,17.83,8,35,2.52,9.84,4.79,18.16,6.61,24.65,3.24,11.56,3.07,10.35,4.39,15.35,4.15,15.74,3.47,19.33,8,41,2.14,10.22,2.94,12.57,4,20,1.49,10.52,2,16.75,0,24-2.77,10.24-9.25,16.52-18,25-7.26,7-13.75,11.3-21,16-7.57,4.91-11.63,6.82-25,14-15.37,8.25-12.34,7-29,16-6.52,3.53-20.63,11.1-38,21-8,4.56-16.27,9.39-23,19-2.94,4.19-6.83,9.9-5,15,.6,1.69,2.77,5.78,18,9,10.51,2.23,18,2.07,30,2,24-.14,20.38.33,37,0,8.23-.16,17.11-.35,29-1,7.61-.42,20.35-1.13,37-3,7.31-.82,19.32-2.19,35-5,19.11-3.42,32-6.89,36-8a171,171,0,0,0,28-10c12.39-5.76,15.91-9.36,18-12,1.43-1.8,7.66-9.68,7-20a25,25,0,0,0-.41-3.11c-.75-4.28-2.58-9.68-8.59-24.89-3.32-8.39-5-12.58-6-15-5.28-12.44-7.25-15.28-9-22-.57-2.19-1.44-6-2-17-.69-13.68-1.46-28.73,2-48,1.59-8.85,2-7.28,5-22,2.26-11.22,3.73-20.76,5-29,1.36-8.88,1.19-8.59,3-21,3.34-22.94,3.67-22.17,5-33,1.54-12.56,1.18-14.3,3-31C706.61,2067.35,707.72,2059,708.5,2053.5Z" fill="#8c56eb" stroke="#000" stroke-miterlimit="10" stroke-width="2"/></g><g id="muslo_d" data-name="muslo d"><path d="M708.5,2053.5a279,279,0,0,1-40,9,269.65,269.65,0,0,1-65,2,253.23,253.23,0,0,1-43-8,99.91,99.91,0,0,1-17-25,98.59,98.59,0,0,1-9-31c-1.37-12.33.86-14.91,0-27-1-13.76-4.78-23.23-8-32-3-8.22-10.67-35.79-25.53-91.07-3.07-11.39-6.19-23.22-9.47-35.93-8.62-33.36-15-60.64-19-78,5.88,4.6,14.78,11.34,26,19,11.83,8.07,21,13.57,25,16,39.71,23.94,40.25,25.86,68,42,27.91,16.23,48.91,28.44,79,41,18,7.53,33.39,12.7,44,16-1.19,9.14-2.77,22.62-4,39-1.48,19.77-1.81,35.28-2,67C708.37,1997.45,708.32,2023.46,708.5,2053.5Z" fill="#ffa4bd" stroke="#000" stroke-miterlimit="10" stroke-width="2"/><path d="M548.5,1953.5a45,45,0,0,0-14,22" fill="none" stroke="#000" stroke-miterlimit="10" stroke-width="2"/></g></g><g id="PIERNA_IZ" data-name="PIERNA IZ"><g id="bota_i" data-name="bota i"><path d="M999.5,2059.5a132.47,132.47,0,0,1-21,12c-12.68,5.79-22.93,8.05-32,10-22.07,4.74-39.85,4.93-54,5-11.66.06-21.32-.48-28-1a315,315,0,0,0,6,31,293.51,293.51,0,0,0,17,50c1.56,3.43,5.71,11.29,14,27,9.2,17.44,13.81,26.16,20,37,10.59,18.53,15.88,27.79,18,31,5.59,8.47,9.78,14.27,12,24a54,54,0,0,1,1,18c-1.31,11-5.16,12.9-10,28-2.24,7-3.16,12-5,22-1.93,10.51-3.18,17.51-3,27,.11,5.75.23,10.23,2,16,1.34,4.35,3.47,11.58,10,17,5.65,4.69,11.55,5.89,17,7,5.3,1.08,10.93,1.1,22,1a217.2,217.2,0,0,0,23-1c6.24-.66,10.53-1.45,19-3,11.55-2.12,17.33-3.18,24-5a131.12,131.12,0,0,0,29-11,110.13,110.13,0,0,0,18-12c10.24-8.15,12.29-12.37,13-14,2.6-5.94,2.24-11.38,2-15a44.3,44.3,0,0,0-6-19c-5.15-9.17-10.44-12.63-18-20-5.82-5.67-12.21-14.45-25-32-10.24-14.05-15.36-21.08-20-30a168.06,168.06,0,0,1-11-27c-5.65-17.62-7.89-31.75-11-55-6.58-49.23-5.71-54.32-10-74A315.47,315.47,0,0,0,999.5,2059.5Z" fill="#8c56eb" stroke="#000" stroke-miterlimit="10" stroke-width="2"/></g><g id="muslo_i" data-name="muslo i"><path d="M999.5,2059.5a132.47,132.47,0,0,1-21,12c-12.68,5.79-22.93,8.05-32,10-22.07,4.74-39.85,4.93-54,5-11.66.06-21.32-.48-28-1-1.85-4.5-4.67-11.45-8-20-8.57-22-8.34-23.44-12-31-6.31-13-7.28-9.36-20-31-7.59-12.91-9-17.19-16-27-1.81-2.54-4.85-6.64-9-13-3.65-5.59-6.2-9.93-8-13-7.28-12.42-10.44-19.42-15-25a19.41,19.41,0,0,1-2.08-2.84c-2.36-4-2.29-7.88-8.92-20.16-4.55-8.43-7.51-12.79-12-22-3.24-6.65-5.55-12.27-7-16a240.09,240.09,0,0,1,13-29,244.24,244.24,0,0,1,30-44,162.8,162.8,0,0,1,15-16c1.38-1.27,4.32-3.9,16-13,9-7,13.48-10.5,17-13,9.77-6.93,17.66-11.47,29-18,6.86-4,12.91-7.23,18-10,6.06-3.29,11.2-6,15-8,4.33,14.86,8.1,27.44,11,37,6.34,20.89,10.27,33.83,16,51,6.13,18.38,6.49,18.11,12,35,1.08,3.32,3.66,11.26,12,39,8.25,27.43,12.37,41.14,13,44,5.92,27.09,3.06,33.41,11,49,2.59,5.09,5.75,10,10,20a155.8,155.8,0,0,1,8,23c2,7.69,3,15.56,5,31C998.4,2049.53,999.06,2055.39,999.5,2059.5Z" fill="#ffa4bd" stroke="#000" stroke-miterlimit="10" stroke-width="2"/><path d="M955.5,1961.5a29.15,29.15,0,0,1,22,14" fill="#ffa4bd" stroke="#000" stroke-miterlimit="10" stroke-width="2"/></g></g></g><g id="CAPA_BORDES" data-name="CAPA BORDES"><path d="M569.12,1137.73q2.1-1.29,4.08-2.38" fill="#8c56eb" stroke="#000" stroke-miterlimit="10" stroke-width="2"/><path d="M571.5,1136.5c-.28-1,1.86-3.07,13-8a45,45,0,0,1,21-4,43.34,43.34,0,0,1,18,5c10.61,5.74,8.83,10.9,18,15s12.92.83,20,6c4.67,3.41,9.69,9.88,8,14-2.55,6.2-19.14,4.32-22,4a64,64,0,0,1-27-10c-7.67-4.91-8.1-7.08-18-13-5.82-3.48-9.5-5.64-15-7C578.4,1136.25,571.94,1138.07,571.5,1136.5Z" fill="#8c56eb" stroke="#000" stroke-miterlimit="10" stroke-width="2"/><path d="M800.5,1116.5c-4,.09-7.1,0-9,0-6.51-.15-25.84-1.27-30-1-3.14.2-6.3.67-6.3.67h0c-2.76.38-5.11.82-7.69,1.32-10.25,2-14.37,3.9-17.27,5.63a42.62,42.62,0,0,0-4.66,3.26c-4,3.13-6.16,5.71-12.07,10.11a78.43,78.43,0,0,1-18,10,12.38,12.38,0,0,0-6,15c2.49,6.75,13.61,7,16,7,11,.23,19.55-6,32-15,6.78-4.9,9.18-7.18,12.9-9.77,2.13-1.48,3.92-2.52,5.1-3.23,8.64-5.2,13.15-7.84,19-8a21.48,21.48,0,0,1,7,1" fill="#8c56eb" stroke="#000" stroke-miterlimit="10" stroke-width="2"/></g><g id="PELO_ADELANTE" data-name="PELO ADELANTE"><path d="M506,478.5c5.27-1.44,12.6-3.28,21.48-5,8.64-1.68,14.11-2.71,21-3a97.11,97.11,0,0,1,23,2,378.26,378.26,0,0,1,48,12A407.78,407.78,0,0,1,684,513c25,13.7,43.08,23.64,62,43,13.23,13.53,9.77,14.17,23,27,26,25.23,40.09,24,49,42,6.12,12.36-1,13.91,4,41s13.23,31.64,14,50c.43,10.19-1.42,25.21-13,44q.5,23,1,46a867,867,0,0,1,16,95c6.73,60,2.82,72.59,11,116,13.42,71.21,30.86,69.45,28,104-4.57,55.11-59.46,67.43-67.1,128.32-6.51,51.87,33.81,98.16,37.1,101.68a129.67,129.67,0,0,0,27,22l20,24,9-25c-12.61-34.13-13.7-57-12-72,.55-4.83,4-32.14,4-32,22.35,22.22,28.15,40.72,29,54,.71,11.18-5.71,23.78,1,37a37,37,0,0,0,13,14,73.25,73.25,0,0,1,3-29c2.44-7.56,8-20,8-20,7.57,18.87,17.45,29.66,25,36,15.09,14.16,36,22,36,22a155.92,155.92,0,0,1,6-36,159.21,159.21,0,0,1,33-60c61.33-56.21,73.58-101.72,73-133.36-1.25-68.07-53.89-89.24-53.89-159,0-66.23,48.74-83.94,36-178.82-2.85-20.89-10.16-48.66-21.67-80.12a1.51,1.51,0,0,1-.27-.51,5,5,0,0,0-.54-1.27,1.83,1.83,0,0,1-.27-.77,3,3,0,0,0-.27-1c-.34-1-.89-2.29-.95-2.42C1080.54,725.44,1034.83,579.87,963,496c-36.65-42.8-73.94-62.33-134-93.81-135.65-71.05-312.43-105.38-360.84-57.95-8.92,8.74-17,28.22-12.65,63.8" fill="url(#Áåçûìÿííûé_ãðàäèåíò_114-4)"/><path d="M472,488c34.28-16.81,62.06-18.53,78-18,18.71.63,36.54,4.88,58,10,21.93,5.23,38,10.62,42,12,22.27,7.6,43,14.69,67,30a221.56,221.56,0,0,1,41,33c16.19,16.66,14.58,20.52,29,33,18.9,16.35,28.28,15.46,37,29,7.49,11.64,6.68,22.33,8,36,1.73,17.94,6.1,43.51,18,75l-2-1c4-17.5,21.75-104.52-31.69-185-30.49-45.92-70.52-69.18-91.67-79.48C782.1,480,808.93,507.37,822.81,529,856.14,580.94,849.9,654.69,866,766c1.62,11.23,4.83,32,18,54,10.24,17.13,19.11,22.66,33,39,22.36,26.29,19.83,36,38,63,34.63,51.49,64.51,47,86.75,92.92,6.5,13.41,11.61,31.07,13.68,51.44,11.1,109.41-161.67,127.11-184.83,185.83-22.2,56.3-1.89,118.45-.13,123.42a1,1,0,0,1,.13.38h24.78a5.84,5.84,0,0,1-.54-1c-6-9-47.25-75.65-12.05-113.61,37.64-40.63,143.79-19.23,176.83-75s27.22-120.36-51.31-227.1S923.68,804.11,892.94,702.72C863,604.65,842,540.33,840.82,536.38c5.68,5,178,155.65,198.36,231.56,20.44,77.18-12,148-2.58,197s38.86,52.22,68.79,152.07-161.94,164-161.94,164c.13.51.13,1,.27,1.53a68.36,68.36,0,0,0,3,11.21c9.34,27,34.26,53.88,50.23,69.16,2.44,2.55,4.74,4.59,6.77,6.37a23.6,23.6,0,0,1,1.9,1.78c1.76,1.53,3.25,2.8,4.2,3.57l.81.76c.13.13.27.26.4.26s-.13-.26-.4-.39c-4.06-4.2-26.13-28.53-16-49.92,11.1-23.57,98.3-64.07,120.64-148.39s-84.76-149.65-43.6-249.13-6.5-176.91-168-342.62S587.35,374.63,587.35,374.63c32.76-3.7,161.26,20,295.44,110.93C1008.44,570.9,1079.26,717.88,1087.65,736c-.08-.31-.17-.63-.28-1-.06-.17-.15-.44-.26-.79A375.52,375.52,0,0,0,1072,696c-39.25-86.24-43.34-95.81-55-117-20.4-37-31.82-57.79-50-80-14.56-17.79-48.24-54.58-124-91-83.58-40.18-222.32-106.89-308.46-42.29C519.12,377.27,483.53,409.43,472,488Z" fill="url(#Áåçûìÿííûé_ãðàäèåíò_123-9)" style="mix-blend-mode:multiply"/><path d="M461.48,440.94s16.86-67.58,45.08-87.48,84.84-23.79,84.84-23.79-81.75-4.58-108,10.81S461.48,440.94,461.48,440.94Z" fill="url(#Áåçûìÿííûé_ãðàäèåíò_123-10)" style="mix-blend-mode:multiply"/><path d="M815.9,1252.32c2.17-36.81,32.09-61.14,115.9-107.88,29.47-16.48,44.07-30.47,47.8-46.29,8.82-37.4-24.43-67.24-65.4-133.43C855.62,870.07,841.56,790.88,835,793c-4.31,1.39,6.87,33.92,17.32,105.62C863.77,977.1,858.5,993.83,873,1050c11.55,44.77,18.1,46.53,19,68C894.36,1174.26,851.91,1221.4,815.9,1252.32Z" fill="url(#Áåçûìÿííûé_ãðàäèåíò_123-11)" style="mix-blend-mode:multiply"/><path d="M472,488c28.23-15.43,52.46-19.09,67-20,24-1.5,43.45,3.16,72,10,4.53,1.09,22.25,5.38,47,14,25.39,8.84,53.78,18.72,86,38a355.32,355.32,0,0,1,69,54,547.21,547.21,0,0,0-82.54-108.12c-52.57-53.46-117.09-118.29-177.1-102.15C500.83,387.87,478.55,462.48,472,488Z" fill="url(#Áåçûìÿííûé_ãðàäèåíò_123-12)" style="mix-blend-mode:multiply"/><path d="M902.9,500.1S876,482.57,864.45,483.17s-30.82,36.91-30.82,36.91l-87.47-65.51s20.34,7.8,38.76,7.8,23-21.43,23-21.43S867.41,470.13,902.9,500.1Z" fill="#ffd9ff" style="mix-blend-mode:soft-light"/><path d="M899.62,478.5s-15.73-49.93-85.26-54.76C814.36,423.74,869.15,451.4,899.62,478.5Z" fill="#ffd9ff" style="mix-blend-mode:soft-light"/><path d="M950.68,908.35s40.58,42.93,67.5,71.32,36.34,79.36,36.34,79.36-9.42-29.72-45.34-35.72-58.08-14.5-76.53-36.57-26.57-60.37-26.57-60.37S936.74,922.82,950.68,908.35Z" fill="#ffd9ff" style="mix-blend-mode:soft-light"/><path d="M1027.58,964.62s-3.43-21.32-21-41.83-36-37.81-36-37.81S984.83,941.69,1027.58,964.62Z" fill="#ffd9ff" style="mix-blend-mode:soft-light"/></g></g></svg>