<svg version="1.1" id="Layer_1" xmlns="http://www.w3.org/2000/svg" xmlns:xlink="http://www.w3.org/1999/xlink" x="0px" y="0px"
	 width="100%" viewBox="0 0 337 337" enable-background="new 0 0 337 337" xml:space="preserve">
<path fill="#76A4F1" opacity="1.000000" stroke="none" 
	d="
M160.000000,338.000000 
	C106.666664,338.000000 53.833332,338.000000 1.000000,338.000000 
	C1.000000,225.666672 1.000000,113.333336 1.000000,1.000000 
	C113.333336,1.000000 225.666672,1.000000 338.000000,1.000000 
	C338.000000,113.333336 338.000000,225.666672 338.000000,338.000000 
	C278.833344,338.000000 219.666672,338.000000 160.000000,338.000000 
M194.931091,219.511505 
	C193.902054,208.250961 192.982956,196.978653 191.779083,185.736832 
	C191.402481,182.220291 192.367554,180.134216 195.200439,177.771683 
	C201.546356,172.479324 207.784119,166.886871 213.127426,160.616837 
	C217.373322,155.634537 219.615036,149.451447 216.797379,142.459717 
	C216.307526,141.244171 217.413635,138.550827 218.617828,137.616394 
	C230.623947,128.299866 235.936554,114.693184 241.940994,101.565575 
	C242.688812,99.930611 242.668610,96.701302 241.628311,95.801430 
	C240.281937,94.636803 237.168930,94.204750 235.480194,94.953712 
	C222.435898,100.738930 209.118408,106.074074 199.748596,117.815742 
	C195.826401,122.730797 190.917557,126.863853 186.402145,131.296249 
	C185.331696,132.347031 184.039307,133.171707 182.729507,134.193634 
	C181.928879,129.064453 182.011719,124.366135 180.349472,120.399033 
	C178.646286,116.334282 177.310425,113.262238 179.504257,108.696259 
	C181.716766,104.091377 178.357010,99.922928 174.185455,100.685806 
	C173.275436,92.799461 170.962112,89.272415 166.327942,88.020401 
	C165.686783,91.273323 165.035202,94.579117 164.383621,97.884903 
	C163.929504,97.794945 163.475403,97.704987 163.021286,97.615021 
	C162.785355,96.310387 162.549438,95.005745 162.317505,93.723274 
	C158.710724,96.141083 155.535858,98.533356 152.116287,100.500175 
	C146.910309,103.494461 143.887543,107.530540 144.082413,113.797501 
	C144.135590,115.506935 142.995773,117.219215 142.725723,118.979637 
	C142.033966,123.488754 140.559738,128.174088 141.227051,132.507339 
	C141.825424,136.393066 140.597473,137.762970 137.806808,139.462082 
	C128.986542,144.832367 121.587975,151.706482 116.797485,161.002640 
	C111.729156,170.837921 113.381302,180.253448 121.311089,187.866440 
	C122.591957,189.096161 123.936615,190.259415 125.608910,191.777618 
	C123.950699,193.545013 122.645470,195.005951 121.266632,196.393784 
	C115.163643,202.536636 108.863869,208.495407 102.975578,214.836746 
	C97.755272,220.458771 98.023178,228.231110 103.093124,233.282288 
	C108.168488,238.338852 116.024773,238.617661 121.650627,233.919998 
	C123.124527,232.689270 124.549255,231.399673 126.867531,229.377335 
	C127.358360,234.745728 128.780060,238.922226 123.148407,241.234482 
	C121.556259,241.888199 120.113327,243.393829 119.116707,244.858902 
	C118.281326,246.086914 117.630814,247.977097 117.982239,249.282288 
	C118.206306,250.114487 120.388573,250.820267 121.723923,250.879303 
	C126.213829,251.077789 130.717682,250.966446 135.216187,250.963577 
	C142.793808,250.958755 142.616241,250.778732 144.776382,243.769043 
	C146.972641,236.642212 149.270706,229.435776 152.632584,222.828140 
	C154.204056,219.739487 158.105240,216.664200 161.456497,215.946899 
	C165.737030,215.030685 168.638550,219.140747 170.155777,222.909622 
	C173.251434,230.599350 176.084930,238.413910 178.572495,246.319885 
	C179.608170,249.611435 181.171234,251.051086 184.522873,250.982040 
	C189.186005,250.885971 193.864349,251.156219 198.512512,250.876434 
	C200.621597,250.749481 202.673828,249.677917 204.751846,249.034851 
	C203.691055,246.936295 203.143707,243.676407 201.480255,242.940948 
	C194.420792,239.819870 194.529770,234.135056 194.962234,228.002014 
	C195.137497,225.516556 194.957474,223.006042 194.931091,219.511505 
z"/>
<path fill="#E3EEFF" opacity="1.000000" stroke="none" 
	d="
M194.935120,220.009216 
	C194.957474,223.006042 195.137497,225.516556 194.962234,228.002014 
	C194.529770,234.135056 194.420792,239.819870 201.480255,242.940948 
	C203.143707,243.676407 203.691055,246.936295 204.751846,249.034851 
	C202.673828,249.677917 200.621597,250.749481 198.512512,250.876434 
	C193.864349,251.156219 189.186005,250.885971 184.522873,250.982040 
	C181.171234,251.051086 179.608170,249.611435 178.572495,246.319885 
	C176.084930,238.413910 173.251434,230.599350 170.155777,222.909622 
	C168.638550,219.140747 165.737030,215.030685 161.456497,215.946899 
	C158.105240,216.664200 154.204056,219.739487 152.632584,222.828140 
	C149.270706,229.435776 146.972641,236.642212 144.776382,243.769043 
	C142.616241,250.778732 142.793808,250.958755 135.216187,250.963577 
	C130.717682,250.966446 126.213829,251.077789 121.723923,250.879303 
	C120.388573,250.820267 118.206306,250.114487 117.982239,249.282288 
	C117.630814,247.977097 118.281326,246.086914 119.116707,244.858902 
	C120.113327,243.393829 121.556259,241.888199 123.148407,241.234482 
	C128.780060,238.922226 127.358360,234.745728 126.867531,229.377335 
	C124.549255,231.399673 123.124527,232.689270 121.650627,233.919998 
	C116.024773,238.617661 108.168488,238.338852 103.093124,233.282288 
	C98.023178,228.231110 97.755272,220.458771 102.975578,214.836746 
	C108.863869,208.495407 115.163643,202.536636 121.266632,196.393784 
	C122.645470,195.005951 123.950699,193.545013 125.608910,191.777618 
	C123.936615,190.259415 122.591957,189.096161 121.311089,187.866440 
	C113.381302,180.253448 111.729156,170.837921 116.797485,161.002640 
	C121.587975,151.706482 128.986542,144.832367 137.806808,139.462082 
	C140.597473,137.762970 141.825424,136.393066 141.227051,132.507339 
	C140.559738,128.174088 142.033966,123.488754 142.725723,118.979637 
	C142.995773,117.219215 144.135590,115.506935 144.082413,113.797501 
	C143.887543,107.530540 146.910309,103.494461 152.116287,100.500175 
	C155.535858,98.533356 158.710724,96.141083 162.317505,93.723274 
	C162.549438,95.005745 162.785355,96.310387 163.021286,97.615021 
	C163.475403,97.704987 163.929504,97.794945 164.383621,97.884903 
	C165.035202,94.579117 165.686783,91.273323 166.327942,88.020401 
	C170.962112,89.272415 173.275436,92.799461 174.185455,100.685806 
	C178.357010,99.922928 181.716766,104.091377 179.504257,108.696259 
	C177.310425,113.262238 178.646286,116.334282 180.349472,120.399033 
	C182.011719,124.366135 181.928879,129.064453 182.729507,134.193634 
	C184.039307,133.171707 185.331696,132.347031 186.402145,131.296249 
	C190.917557,126.863853 195.826401,122.730797 199.748596,117.815742 
	C209.118408,106.074074 222.435898,100.738930 235.480194,94.953712 
	C237.168930,94.204750 240.281937,94.636803 241.628311,95.801430 
	C242.668610,96.701302 242.688812,99.930611 241.940994,101.565575 
	C235.936554,114.693184 230.623947,128.299866 218.617828,137.616394 
	C217.413635,138.550827 216.307526,141.244171 216.797379,142.459717 
	C219.615036,149.451447 217.373322,155.634537 213.127426,160.616837 
	C207.784119,166.886871 201.546356,172.479324 195.200439,177.771683 
	C192.367554,180.134216 191.402481,182.220291 191.779083,185.736832 
	C192.982956,196.978653 193.902054,208.250961 194.935120,220.009216 
M211.930832,113.394257 
	C189.885178,135.399078 167.820175,157.384613 145.844193,179.458817 
	C144.587311,180.721313 143.257980,182.742447 143.327667,184.351379 
	C143.632950,191.400162 141.860794,193.441864 134.748871,193.988770 
	C132.796036,194.138931 130.488998,194.969345 129.100449,196.285278 
	C121.849907,203.156616 114.782982,210.226425 107.804405,217.375793 
	C106.488808,218.723618 105.431023,220.644455 105.007568,222.475128 
	C104.115723,226.330704 105.717842,229.417999 109.278229,231.131149 
	C113.521210,233.172760 116.906128,231.472916 120.010399,228.365097 
	C144.962234,203.384720 169.985733,178.475800 194.880615,153.438919 
	C196.384583,151.926392 197.353104,149.607391 197.917267,147.489563 
	C199.232056,142.553986 201.927979,139.315750 206.980743,137.891052 
	C209.372421,137.216675 211.868607,136.144135 213.742050,134.568039 
	C217.170227,131.684036 220.799088,128.704849 223.217636,125.024895 
	C228.049057,117.673531 232.119247,109.821869 236.503799,102.176804 
	C235.928772,101.607521 235.353745,101.038239 234.778717,100.468948 
	C227.334671,104.612717 219.890640,108.756485 211.930832,113.394257 
M161.473999,132.181961 
	C159.596405,132.265930 157.718826,132.349899 155.841232,132.433884 
	C155.627243,133.040649 155.413239,133.647415 155.199234,134.254181 
	C157.391388,135.380539 159.556808,137.304230 161.784225,137.378891 
	C163.540253,137.437790 165.372635,135.219604 167.171097,134.012772 
	C166.956772,133.548492 166.742462,133.084213 166.528152,132.619934 
	C165.122330,132.474503 163.716522,132.329086 161.473999,132.181961 
M181.721634,135.464966 
	C181.721634,135.464966 181.442307,135.311966 181.442307,135.311966 
	C181.442307,135.311966 181.490738,135.647141 181.721634,135.464966 
z"/>
<path fill="#78A5F1" opacity="1.000000" stroke="none" 
	d="
M212.188721,113.147255 
	C219.890640,108.756485 227.334671,104.612717 234.778717,100.468948 
	C235.353745,101.038239 235.928772,101.607521 236.503799,102.176804 
	C232.119247,109.821869 228.049057,117.673531 223.217636,125.024895 
	C220.799088,128.704849 217.170227,131.684036 213.742050,134.568039 
	C211.868607,136.144135 209.372421,137.216675 206.980743,137.891052 
	C201.927979,139.315750 199.232056,142.553986 197.917267,147.489563 
	C197.353104,149.607391 196.384583,151.926392 194.880615,153.438919 
	C169.985733,178.475800 144.962234,203.384720 120.010399,228.365097 
	C116.906128,231.472916 113.521210,233.172760 109.278229,231.131149 
	C105.717842,229.417999 104.115723,226.330704 105.007568,222.475128 
	C105.431023,220.644455 106.488808,218.723618 107.804405,217.375793 
	C114.782982,210.226425 121.849907,203.156616 129.100449,196.285278 
	C130.488998,194.969345 132.796036,194.138931 134.748871,193.988770 
	C141.860794,193.441864 143.632950,191.400162 143.327667,184.351379 
	C143.257980,182.742447 144.587311,180.721313 145.844193,179.458817 
	C167.820175,157.384613 189.885178,135.399078 212.188721,113.147255 
z"/>
<path fill="#88B0F3" opacity="1.000000" stroke="none" 
	d="
M161.892349,132.182800 
	C163.716522,132.329086 165.122330,132.474503 166.528152,132.619934 
	C166.742462,133.084213 166.956772,133.548492 167.171097,134.012772 
	C165.372635,135.219604 163.540253,137.437790 161.784225,137.378891 
	C159.556808,137.304230 157.391388,135.380539 155.199234,134.254181 
	C155.413239,133.647415 155.627243,133.040649 155.841232,132.433884 
	C157.718826,132.349899 159.596405,132.265930 161.892349,132.182800 
z"/>
<path fill="#76A4F1" opacity="1.000000" stroke="none" 
	d="
M181.606186,135.556061 
	C181.490738,135.647141 181.442307,135.311966 181.442307,135.311966 
	C181.442307,135.311966 181.721634,135.464966 181.606186,135.556061 
z"/>
</svg>